<?xml version="1.0" standalone="no"?>
<!DOCTYPE svg PUBLIC "-//W3C//DTD SVG 20010904//EN"
 "http://www.w3.org/TR/2001/REC-SVG-20010904/DTD/svg10.dtd">
<svg version="1.0" xmlns="http://www.w3.org/2000/svg"
 width="100.000000pt" height="100.000000pt" viewBox="0 0 100.000000 100.000000"
 preserveAspectRatio="xMidYMid meet">

<g transform="translate(0.000000,100.000000) scale(0.100000,-0.100000)"
fill="#000000" stroke="none">
<path d="M369 915 c-100 -32 -168 -99 -195 -194 -30 -100 -9 -164 100 -320 44
-63 49 -76 57 -148 4 -43 8 -80 8 -82 2 -13 107 -101 120 -101 24 0 108 79
120 113 6 16 11 49 11 74 0 45 33 133 50 133 4 0 11 -7 14 -16 4 -11 17 -14
48 -12 36 2 44 7 46 25 4 27 34 38 61 21 17 -11 24 -9 46 12 22 21 25 30 19
66 -6 40 -5 42 26 52 28 10 31 15 28 49 -2 28 -9 41 -27 50 -29 14 -45 39 -31
48 16 10 11 51 -8 68 -21 19 -57 22 -67 7 -9 -14 -34 2 -48 31 -7 13 -21 25
-32 27 -11 2 -33 17 -50 32 -69 66 -203 95 -296 65z m180 -31 c33 -9 69 -30
96 -55 23 -21 49 -39 58 -39 8 0 17 -10 21 -23 7 -30 60 -51 87 -34 27 17 49
-5 32 -33 -17 -27 9 -90 37 -90 15 0 20 -7 20 -25 0 -18 -5 -25 -20 -25 -28 0
-54 -53 -38 -79 18 -29 -5 -54 -37 -39 -31 14 -79 -9 -83 -40 -4 -29 -45 -27
-51 3 -15 83 -111 -43 -111 -148 0 -82 -35 -127 -100 -127 -65 0 -100 45 -100
127 0 60 -22 107 -93 206 -31 43 -61 95 -67 115 -24 89 -2 177 63 241 77 74
178 98 286 65z"/>
</g>
</svg>
